<mxfile host="app.diagrams.net" modified="2022-05-23T17:55:20.260Z" agent="5.0 (Windows NT 10.0; Win64; x64) AppleWebKit/537.36 (KHTML, like Gecko) Chrome/101.0.4951.67 Safari/537.36" etag="GtKz1ZhJ3B9XC7_moPOV" version="18.1.1" type="github">
  <diagram id="hmQxGtx6hovtQC4vwk3S" name="第 1 页">
    <mxGraphModel dx="1038" dy="588" grid="1" gridSize="10" guides="1" tooltips="1" connect="1" arrows="1" fold="1" page="1" pageScale="1" pageWidth="827" pageHeight="1169" math="0" shadow="0">
      <root>
        <mxCell id="0" />
        <mxCell id="1" parent="0" />
        <mxCell id="lGtCFB5HxtGH8RZsmqWm-16" style="edgeStyle=orthogonalEdgeStyle;shape=flexArrow;rounded=0;orthogonalLoop=1;jettySize=auto;html=1;exitX=0;exitY=0.5;exitDx=0;exitDy=0;entryX=1;entryY=0.5;entryDx=0;entryDy=0;strokeWidth=1;" edge="1" parent="1" source="lGtCFB5HxtGH8RZsmqWm-1" target="lGtCFB5HxtGH8RZsmqWm-12">
          <mxGeometry relative="1" as="geometry" />
        </mxCell>
        <mxCell id="lGtCFB5HxtGH8RZsmqWm-20" value="Enter" style="edgeLabel;html=1;align=center;verticalAlign=middle;resizable=0;points=[];" vertex="1" connectable="0" parent="lGtCFB5HxtGH8RZsmqWm-16">
          <mxGeometry x="0.62" y="-2" relative="1" as="geometry">
            <mxPoint as="offset" />
          </mxGeometry>
        </mxCell>
        <mxCell id="lGtCFB5HxtGH8RZsmqWm-17" style="edgeStyle=orthogonalEdgeStyle;shape=flexArrow;rounded=0;orthogonalLoop=1;jettySize=auto;html=1;exitX=0;exitY=0.5;exitDx=0;exitDy=0;entryX=1.007;entryY=0.405;entryDx=0;entryDy=0;entryPerimeter=0;strokeWidth=1;" edge="1" parent="1" source="lGtCFB5HxtGH8RZsmqWm-1" target="lGtCFB5HxtGH8RZsmqWm-13">
          <mxGeometry relative="1" as="geometry" />
        </mxCell>
        <mxCell id="lGtCFB5HxtGH8RZsmqWm-22" value="Enter" style="edgeLabel;html=1;align=center;verticalAlign=middle;resizable=0;points=[];" vertex="1" connectable="0" parent="lGtCFB5HxtGH8RZsmqWm-17">
          <mxGeometry x="0.7505" y="2" relative="1" as="geometry">
            <mxPoint as="offset" />
          </mxGeometry>
        </mxCell>
        <mxCell id="lGtCFB5HxtGH8RZsmqWm-18" style="edgeStyle=orthogonalEdgeStyle;shape=flexArrow;rounded=0;orthogonalLoop=1;jettySize=auto;html=1;exitX=0;exitY=0.5;exitDx=0;exitDy=0;entryX=1;entryY=0.5;entryDx=0;entryDy=0;strokeWidth=1;" edge="1" parent="1" source="lGtCFB5HxtGH8RZsmqWm-1" target="lGtCFB5HxtGH8RZsmqWm-11">
          <mxGeometry relative="1" as="geometry" />
        </mxCell>
        <mxCell id="lGtCFB5HxtGH8RZsmqWm-21" value="Enter" style="edgeLabel;html=1;align=center;verticalAlign=middle;resizable=0;points=[];" vertex="1" connectable="0" parent="lGtCFB5HxtGH8RZsmqWm-18">
          <mxGeometry x="0.7356" y="3" relative="1" as="geometry">
            <mxPoint as="offset" />
          </mxGeometry>
        </mxCell>
        <mxCell id="lGtCFB5HxtGH8RZsmqWm-1" value="管理器" style="rounded=0;whiteSpace=wrap;html=1;" vertex="1" parent="1">
          <mxGeometry x="440" y="200" width="120" height="80" as="geometry" />
        </mxCell>
        <mxCell id="lGtCFB5HxtGH8RZsmqWm-25" style="edgeStyle=orthogonalEdgeStyle;shape=flexArrow;rounded=0;orthogonalLoop=1;jettySize=auto;html=1;exitX=0.5;exitY=1;exitDx=0;exitDy=0;entryX=0.5;entryY=1;entryDx=0;entryDy=0;strokeWidth=1;" edge="1" parent="1" source="lGtCFB5HxtGH8RZsmqWm-11" target="lGtCFB5HxtGH8RZsmqWm-1">
          <mxGeometry relative="1" as="geometry" />
        </mxCell>
        <mxCell id="lGtCFB5HxtGH8RZsmqWm-28" value="Exit" style="edgeLabel;html=1;align=center;verticalAlign=middle;resizable=0;points=[];" vertex="1" connectable="0" parent="lGtCFB5HxtGH8RZsmqWm-25">
          <mxGeometry x="-0.2121" y="-3" relative="1" as="geometry">
            <mxPoint as="offset" />
          </mxGeometry>
        </mxCell>
        <mxCell id="lGtCFB5HxtGH8RZsmqWm-11" value="状态三" style="rounded=0;whiteSpace=wrap;html=1;" vertex="1" parent="1">
          <mxGeometry x="80" y="360" width="120" height="80" as="geometry" />
        </mxCell>
        <mxCell id="lGtCFB5HxtGH8RZsmqWm-23" style="edgeStyle=orthogonalEdgeStyle;shape=flexArrow;rounded=0;orthogonalLoop=1;jettySize=auto;html=1;exitX=0;exitY=0.5;exitDx=0;exitDy=0;entryX=0.5;entryY=0;entryDx=0;entryDy=0;strokeWidth=1;" edge="1" parent="1" source="lGtCFB5HxtGH8RZsmqWm-12" target="lGtCFB5HxtGH8RZsmqWm-1">
          <mxGeometry relative="1" as="geometry">
            <Array as="points">
              <mxPoint x="60" y="240" />
              <mxPoint x="60" y="150" />
              <mxPoint x="500" y="150" />
            </Array>
          </mxGeometry>
        </mxCell>
        <mxCell id="lGtCFB5HxtGH8RZsmqWm-24" value="Exit" style="edgeLabel;html=1;align=center;verticalAlign=middle;resizable=0;points=[];" vertex="1" connectable="0" parent="lGtCFB5HxtGH8RZsmqWm-23">
          <mxGeometry x="-0.26" y="2" relative="1" as="geometry">
            <mxPoint as="offset" />
          </mxGeometry>
        </mxCell>
        <mxCell id="lGtCFB5HxtGH8RZsmqWm-12" value="状态二" style="rounded=0;whiteSpace=wrap;html=1;" vertex="1" parent="1">
          <mxGeometry x="80" y="200" width="120" height="80" as="geometry" />
        </mxCell>
        <mxCell id="lGtCFB5HxtGH8RZsmqWm-26" style="edgeStyle=orthogonalEdgeStyle;shape=flexArrow;rounded=0;orthogonalLoop=1;jettySize=auto;html=1;exitX=0.5;exitY=0;exitDx=0;exitDy=0;entryX=1;entryY=0.5;entryDx=0;entryDy=0;strokeWidth=1;" edge="1" parent="1" source="lGtCFB5HxtGH8RZsmqWm-13" target="lGtCFB5HxtGH8RZsmqWm-1">
          <mxGeometry relative="1" as="geometry">
            <Array as="points">
              <mxPoint x="140" y="20" />
              <mxPoint x="600" y="20" />
              <mxPoint x="600" y="240" />
            </Array>
          </mxGeometry>
        </mxCell>
        <mxCell id="lGtCFB5HxtGH8RZsmqWm-27" value="Exit" style="edgeLabel;html=1;align=center;verticalAlign=middle;resizable=0;points=[];" vertex="1" connectable="0" parent="lGtCFB5HxtGH8RZsmqWm-26">
          <mxGeometry x="-0.2011" y="-1" relative="1" as="geometry">
            <mxPoint as="offset" />
          </mxGeometry>
        </mxCell>
        <mxCell id="lGtCFB5HxtGH8RZsmqWm-13" value="状态一" style="rounded=0;whiteSpace=wrap;html=1;" vertex="1" parent="1">
          <mxGeometry x="80" y="40" width="120" height="80" as="geometry" />
        </mxCell>
      </root>
    </mxGraphModel>
  </diagram>
</mxfile>
